# xmcd
# 
# Track frame offsets:
#     150
#     11987
#     22475
#     36350
#     45810
#     53985
#     67490
#     78057
#     90040
#     102364
#     116546
#     129329
#     146459
#     158960
#     169621
# 
# Disc length: 2413
# 
# Revision: 2
# Processed by: cddbd v1.5.2PL0 Copyright (c) Steve Scherf et al.
# Submitted via: BonkEnc v1.0.5
# 
DISCID=c2096b0f
DTITLE=Johnny Cash - Greatest Hits
DYEAR=1995
DGENRE=Country
TTITLE0=I walk the line
TTITLE1=Big River
TTITLE2=Don´t take your guns to town
TTITLE3=I got stripes
TTITLE4=Five feet high and rising
TTITLE5=Tennessee flat - top box
TTITLE6=Bonanaza
TTITLE7=Ring of fire
TTITLE8=Understand your man
TTITLE9=Orange blossom special
TTITLE10=The one on the right is the one on the left
TTITLE11=Ghost riders in the sky
TTITLE12=Jackson (with  June Carter)
TTITLE13=Daddy sang bass
TTITLE14=A thing called love
EXTD=YEAR: 1995
EXTT0=
EXTT1=
EXTT2=
EXTT3=
EXTT4=
EXTT5=
EXTT6=
EXTT7=
EXTT8=
EXTT9=
EXTT10=
EXTT11=
EXTT12=
EXTT13=
EXTT14=
PLAYORDER=
